<svg id="visual" viewBox="0 0 900 600" width="900" height="600" xmlns="http://www.w3.org/2000/svg" xmlns:xlink="http://www.w3.org/1999/xlink" version="1.1"><rect x="0" y="0" width="900" height="600" fill="#99a1a6"></rect><path d="M0 438L129 387L257 391L386 381L514 424L643 448L771 421L900 442L900 601L771 601L643 601L514 601L386 601L257 601L129 601L0 601Z" fill="#5c5d8d"></path><path d="M0 438L129 407L257 433L386 401L514 410L643 401L771 475L900 409L900 601L771 601L643 601L514 601L386 601L257 601L129 601L0 601Z" fill="#564f7c"></path><path d="M0 457L129 501L257 471L386 477L514 488L643 504L771 503L900 479L900 601L771 601L643 601L514 601L386 601L257 601L129 601L0 601Z" fill="#4f416b"></path><path d="M0 495L129 508L257 526L386 525L514 493L643 485L771 493L900 480L900 601L771 601L643 601L514 601L386 601L257 601L129 601L0 601Z" fill="#47335a"></path><path d="M0 531L129 560L257 551L386 573L514 550L643 571L771 555L900 553L900 601L771 601L643 601L514 601L386 601L257 601L129 601L0 601Z" fill="#3f264a"></path></svg>