<svg id="visual" viewBox="0 0 900 600" width="900" height="600" xmlns="http://www.w3.org/2000/svg" xmlns:xlink="http://www.w3.org/1999/xlink" version="1.1"><g stroke-width="1" stroke-linejoin="bevel"><path d="M484 328L403 327L430 386Z" fill="#2b3983" stroke="#2b3983"></path><path d="M430 386L486 411L484 328Z" fill="#00213d" stroke="#00213d"></path><path d="M430 386L491 462L486 411Z" fill="#001c32" stroke="#001c32"></path><path d="M639 368L578 263L484 328Z" fill="#2b3983" stroke="#2b3983"></path><path d="M403 327L329 423L430 386Z" fill="#11326d" stroke="#11326d"></path><path d="M430 386L389 499L491 462Z" fill="#1d3678" stroke="#1d3678"></path><path d="M484 328L387 210L403 327Z" fill="#2b3983" stroke="#2b3983"></path><path d="M403 327L282 325L329 423Z" fill="#11326d" stroke="#11326d"></path><path d="M639 368L484 328L486 411Z" fill="#2b3983" stroke="#2b3983"></path><path d="M484 328L516 198L387 210Z" fill="#002549" stroke="#002549"></path><path d="M387 210L282 325L403 327Z" fill="#00213d" stroke="#00213d"></path><path d="M578 263L516 198L484 328Z" fill="#2b3983" stroke="#2b3983"></path><path d="M329 423L389 499L430 386Z" fill="#021627" stroke="#021627"></path><path d="M465 600L562 461L491 462Z" fill="#052e61" stroke="#052e61"></path><path d="M491 462L562 461L486 411Z" fill="#021627" stroke="#021627"></path><path d="M329 423L300 467L389 499Z" fill="#052e61" stroke="#052e61"></path><path d="M229 374L300 467L329 423Z" fill="#00101c" stroke="#00101c"></path><path d="M381 130L318 200L387 210Z" fill="#021627" stroke="#021627"></path><path d="M387 210L318 200L282 325Z" fill="#052e61" stroke="#052e61"></path><path d="M562 461L639 368L486 411Z" fill="#002a55" stroke="#002a55"></path><path d="M197 283L229 374L282 325Z" fill="#001c32" stroke="#001c32"></path><path d="M282 325L229 374L329 423Z" fill="#052e61" stroke="#052e61"></path><path d="M668 231L593 188L578 263Z" fill="#1d3678" stroke="#1d3678"></path><path d="M578 263L593 188L516 198Z" fill="#021627" stroke="#021627"></path><path d="M516 198L381 130L387 210Z" fill="#001c32" stroke="#001c32"></path><path d="M529 91L381 130L516 198Z" fill="#11326d" stroke="#11326d"></path><path d="M639 368L679 308L578 263Z" fill="#052e61" stroke="#052e61"></path><path d="M381 130L321 126L318 200Z" fill="#021627" stroke="#021627"></path><path d="M318 200L197 283L282 325Z" fill="#11326d" stroke="#11326d"></path><path d="M679 308L668 231L578 263Z" fill="#052e61" stroke="#052e61"></path><path d="M171 198L197 283L318 200Z" fill="#393b8e" stroke="#393b8e"></path><path d="M660 83L572 125L593 188Z" fill="#002a55" stroke="#002a55"></path><path d="M593 188L572 125L516 198Z" fill="#00101c" stroke="#00101c"></path><path d="M381 130L411 0L321 126Z" fill="#00101c" stroke="#00101c"></path><path d="M411 600L465 600L389 499Z" fill="#2b3983" stroke="#2b3983"></path><path d="M389 499L465 600L491 462Z" fill="#001c32" stroke="#001c32"></path><path d="M731 506L730 389L639 368Z" fill="#001c32" stroke="#001c32"></path><path d="M122 378L214 461L229 374Z" fill="#021627" stroke="#021627"></path><path d="M229 374L214 461L300 467Z" fill="#2b3983" stroke="#2b3983"></path><path d="M326 600L411 600L389 499Z" fill="#002a55" stroke="#002a55"></path><path d="M326 600L389 499L300 467Z" fill="#002549" stroke="#002549"></path><path d="M572 125L529 91L516 198Z" fill="#00213d" stroke="#00213d"></path><path d="M239 600L326 600L300 467Z" fill="#11326d" stroke="#11326d"></path><path d="M639 368L730 389L679 308Z" fill="#001c32" stroke="#001c32"></path><path d="M679 308L779 278L668 231Z" fill="#11326d" stroke="#11326d"></path><path d="M731 506L639 368L562 461Z" fill="#00213d" stroke="#00213d"></path><path d="M233 108L171 198L318 200Z" fill="#001c32" stroke="#001c32"></path><path d="M197 283L122 378L229 374Z" fill="#021627" stroke="#021627"></path><path d="M465 600L624 600L562 461Z" fill="#021627" stroke="#021627"></path><path d="M279 0L233 108L321 126Z" fill="#00101c" stroke="#00101c"></path><path d="M321 126L233 108L318 200Z" fill="#00101c" stroke="#00101c"></path><path d="M86 296L122 378L197 283Z" fill="#021627" stroke="#021627"></path><path d="M214 461L239 600L300 467Z" fill="#1d3678" stroke="#1d3678"></path><path d="M73 506L239 600L214 461Z" fill="#11326d" stroke="#11326d"></path><path d="M624 600L731 506L562 461Z" fill="#00101c" stroke="#00101c"></path><path d="M668 231L660 83L593 188Z" fill="#021627" stroke="#021627"></path><path d="M572 125L562 0L529 91Z" fill="#052e61" stroke="#052e61"></path><path d="M529 91L411 0L381 130Z" fill="#393b8e" stroke="#393b8e"></path><path d="M813 175L660 83L668 231Z" fill="#00213d" stroke="#00213d"></path><path d="M803 401L779 278L730 389Z" fill="#2b3983" stroke="#2b3983"></path><path d="M730 389L779 278L679 308Z" fill="#1d3678" stroke="#1d3678"></path><path d="M233 108L138 188L171 198Z" fill="#002549" stroke="#002549"></path><path d="M171 198L86 296L197 283Z" fill="#001c32" stroke="#001c32"></path><path d="M485 0L411 0L529 91Z" fill="#002549" stroke="#002549"></path><path d="M562 0L485 0L529 91Z" fill="#2b3983" stroke="#2b3983"></path><path d="M624 600L679 600L731 506Z" fill="#021627" stroke="#021627"></path><path d="M138 188L86 296L171 198Z" fill="#11326d" stroke="#11326d"></path><path d="M660 83L562 0L572 125Z" fill="#2b3983" stroke="#2b3983"></path><path d="M731 506L803 401L730 389Z" fill="#052e61" stroke="#052e61"></path><path d="M831 461L803 401L731 506Z" fill="#00213d" stroke="#00213d"></path><path d="M411 0L279 0L321 126Z" fill="#1d3678" stroke="#1d3678"></path><path d="M233 108L111 109L138 188Z" fill="#021627" stroke="#021627"></path><path d="M0 378L73 506L122 378Z" fill="#00101c" stroke="#00101c"></path><path d="M122 378L73 506L214 461Z" fill="#1d3678" stroke="#1d3678"></path><path d="M768 600L831 461L731 506Z" fill="#002a55" stroke="#002a55"></path><path d="M900 220L813 175L779 278Z" fill="#00213d" stroke="#00213d"></path><path d="M779 278L813 175L668 231Z" fill="#2b3983" stroke="#2b3983"></path><path d="M660 83L666 0L562 0Z" fill="#021627" stroke="#021627"></path><path d="M900 277L779 278L803 401Z" fill="#1d3678" stroke="#1d3678"></path><path d="M0 236L0 266L86 296Z" fill="#2b3983" stroke="#2b3983"></path><path d="M184 0L111 109L233 108Z" fill="#00101c" stroke="#00101c"></path><path d="M778 0L666 0L660 83Z" fill="#2b3983" stroke="#2b3983"></path><path d="M679 600L768 600L731 506Z" fill="#001c32" stroke="#001c32"></path><path d="M279 0L184 0L233 108Z" fill="#1d3678" stroke="#1d3678"></path><path d="M86 296L0 378L122 378Z" fill="#11326d" stroke="#11326d"></path><path d="M0 266L0 378L86 296Z" fill="#001c32" stroke="#001c32"></path><path d="M0 600L74 600L73 506Z" fill="#021627" stroke="#021627"></path><path d="M73 506L74 600L239 600Z" fill="#00101c" stroke="#00101c"></path><path d="M0 236L138 188L111 109Z" fill="#2b3983" stroke="#2b3983"></path><path d="M0 236L86 296L138 188Z" fill="#052e61" stroke="#052e61"></path><path d="M900 220L832 117L813 175Z" fill="#052e61" stroke="#052e61"></path><path d="M813 175L832 117L660 83Z" fill="#11326d" stroke="#11326d"></path><path d="M0 101L0 236L111 109Z" fill="#002a55" stroke="#002a55"></path><path d="M900 485L900 406L831 461Z" fill="#001c32" stroke="#001c32"></path><path d="M831 461L900 406L803 401Z" fill="#002549" stroke="#002549"></path><path d="M900 406L900 277L803 401Z" fill="#2b3983" stroke="#2b3983"></path><path d="M0 378L0 486L73 506Z" fill="#1d3678" stroke="#1d3678"></path><path d="M900 277L900 220L779 278Z" fill="#002a55" stroke="#002a55"></path><path d="M900 600L900 485L831 461Z" fill="#00101c" stroke="#00101c"></path><path d="M900 0L778 0L832 117Z" fill="#001c32" stroke="#001c32"></path><path d="M832 117L778 0L660 83Z" fill="#002549" stroke="#002549"></path><path d="M184 0L96 0L111 109Z" fill="#002a55" stroke="#002a55"></path><path d="M96 0L0 101L111 109Z" fill="#002549" stroke="#002549"></path><path d="M0 486L0 600L73 506Z" fill="#002a55" stroke="#002a55"></path><path d="M900 220L900 97L832 117Z" fill="#00213d" stroke="#00213d"></path><path d="M768 600L900 600L831 461Z" fill="#052e61" stroke="#052e61"></path><path d="M96 0L0 0L0 101Z" fill="#11326d" stroke="#11326d"></path><path d="M900 97L900 0L832 117Z" fill="#00213d" stroke="#00213d"></path></g></svg>